<svg xmlns="http://www.w3.org/2000/svg" viewBox="0 0 19 20">
  <path d="m6.9 18-1.7 1.7a.967.967 0 0 1-1.4 0L2.1 18ZM2 13.1.3 14.8a.967.967 0 0 0 0 1.4L2 17.9Zm15.3-6.9-3.5-3.5a.967.967 0 0 0-1.4 0L7 8.1V18L17.3 7.7a1.087 1.087 0 0 0 0-1.5Z" data-name="Path 3" opacity=".3"/>
  <path d="M19 12v5a.945.945 0 0 1-1 1H9.8l7-7H18a.945.945 0 0 1 1 1ZM8 18V1a.945.945 0 0 0-1-1H2a.945.945 0 0 0-1 1v17a.945.945 0 0 0 1 1h5a.945.945 0 0 0 1-1Zm-2.5-2.5a.945.945 0 0 1-1 1 1 1 0 0 1 0-2 .945.945 0 0 1 1 1Z" data-name="Path 4"/>
</svg>
