<svg xmlns="http://www.w3.org/2000/svg" viewBox="0 0 19.172 19.172">
  <path d="M8.879.293a1 1 0 0 1 1.414 0l2.586 2.586a1 1 0 0 1 0 1.414l-2.586 2.586a1 1 0 0 1-1.414 0L6.293 4.293a1 1 0 0 1 0-1.414Z" data-name="Path 5"/>
  <path d="M8.879 12.293a1 1 0 0 1 1.414 0l2.586 2.586a1 1 0 0 1 0 1.414l-2.586 2.586a1 1 0 0 1-1.414 0l-2.586-2.586a1 1 0 0 1 0-1.414Z" data-name="Path 6"/>
  <path d="M2.879 6.293a1 1 0 0 1 1.414 0l2.586 2.586a1 1 0 0 1 0 1.414l-2.586 2.586a1 1 0 0 1-1.414 0L.293 10.293a1 1 0 0 1 0-1.414Z" data-name="Path 7" opacity=".3"/>
  <path d="M14.879 6.293a1 1 0 0 1 1.414 0l2.586 2.586a1 1 0 0 1 0 1.414l-2.586 2.586a1 1 0 0 1-1.414 0l-2.586-2.586a1 1 0 0 1 0-1.414Z" data-name="Path 8" opacity=".3"/>
</svg>
