<svg viewBox="0 0 234 35" fill="none" xmlns="http://www.w3.org/2000/svg">
<path fill="#ffc576" d="M15.8294 6.30519C15.8294 6.30519 11.5509 6.82505 11.6731 10.4743C11.7284 12.142 12.9123 14.4903 14.7716 16.6804C16.9836 19.2848 20.1078 21.8802 19.8569 25.6967C19.4323 32.164 13.5441 33.133 12.265 33.048C5.75141 32.6157 0.144979 26.1844 0.00214802 17.6287C-0.140683 9.07303 6.85031 0.0785401 17.7595 4.74625e-05C18.6499 -0.00638636 21.6198 0.64343 21.6198 0.64343C21.6198 0.64343 18.2742 0.970268 17.7595 2.31622C16.7867 2.06788 10.1998 1.87358 5.88652 7.35262C1.57329 12.8317 2.08156 16.1914 2.08285 17.7587C2.08285 18.4561 2.43413 22.4708 4.21888 25.2785C6.47329 28.8274 9.85619 31.6133 12.3551 31.3675C14.9518 31.1114 15.9439 29.467 15.8384 27.6745C15.554 22.8736 7.26851 17.9543 7.72274 12.739C8.03671 9.1335 9.92182 5.77119 15.9542 5.85869C17.4777 2.9699 20.4913 1.79766 22.9066 1.93019C29.8049 2.3085 35.042 10.289 34.9417 17.2131C34.7654 29.4284 24.358 34.8392 17.9873 34.9396C16.6966 34.9602 13.5132 34.3567 13.5132 34.3567C13.5132 34.3567 16.3505 33.9591 17.2744 32.8216C24.6939 32.9464 32.6499 27.1431 32.9021 17.5C32.9523 15.5686 32.3604 11.8396 29.9246 8.47211C27.8156 5.55501 24.6939 3.29803 22.2928 3.57339C19.1621 3.9324 18.9176 6.23056 19.0115 7.36034C19.4014 12.0506 27.2494 16.5594 27.1915 22.1234C27.1503 26.0609 23.8562 29.0127 20.3935 29.0591C19.7926 29.0668 19.1749 28.9523 19.1749 28.9523C19.1749 28.9523 19.3216 28.9098 19.5597 28.821C20.6226 28.426 23.5088 27.0993 23.3762 24.4203C23.1292 19.4135 15.0586 14.61 15.0792 9.37155C15.0856 7.81714 15.8294 6.30519 15.8294 6.30519Z"/>
<path d="M45.4061 24.3262V21.6309C47.0158 22.2299 48.8351 22.5294 50.8641 22.5294C53.3273 22.5294 54.5589 21.7058 54.5589 20.0586C54.5589 18.8607 53.8027 18.2618 52.2904 18.2618H49.7747C46.4879 18.2618 44.8446 16.7644 44.8446 13.7696C44.8446 10.4753 47.1842 8.82818 51.8636 8.82818C53.6605 8.82818 55.3638 9.09022 56.9735 9.61431V12.3096C55.3638 11.7107 53.6605 11.4112 51.8636 11.4112C49.1683 11.4112 47.8206 12.1973 47.8206 13.7696C47.8206 14.9675 48.472 15.5665 49.7747 15.5665H52.2904C55.7868 15.5665 57.535 17.0639 57.535 20.0586C57.535 23.4278 55.3114 25.1124 50.8641 25.1124C48.8351 25.1124 47.0158 24.8503 45.4061 24.3262ZM61.7127 25.0001H58.658L65.4749 8.94048H68.6756L75.6385 25.0001H72.4378L70.6073 20.6202H65.2728L66.2948 18.0372H69.5291L67.0023 12.0064L61.7127 25.0001ZM77.6038 18.6885V8.94048H80.5799V18.6885C80.5799 21.2491 81.8901 22.5294 84.5106 22.5294C87.131 22.5294 88.4412 21.2491 88.4412 18.6885V8.94048H91.4173V18.6885C91.4173 22.9711 89.1151 25.1124 84.5106 25.1124C79.9061 25.1124 77.6038 22.9711 77.6038 18.6885ZM94.7865 24.9776V8.94048H102.086C105.366 8.94048 107.005 10.3742 107.005 13.2418C107.005 15.1809 105.729 16.7868 103.176 18.0596L108.263 25.0001H104.512L99.6268 18.0035V16.6446C102.472 16.1579 103.894 15.0536 103.894 13.3316C103.894 12.1487 103.228 11.5572 101.895 11.5572H97.8187V24.9776H94.7865ZM111.329 25.0001H108.274L115.091 8.94048H118.292L125.255 25.0001H122.054L120.223 20.6202H114.889L115.911 18.0372H119.145L116.618 12.0064L111.329 25.0001ZM127.22 25.0001V8.94048H134.744C137.799 8.94048 139.326 10.1871 139.326 12.6802C139.326 14.5071 138.331 15.8135 136.339 16.5997C138.465 16.9965 139.529 18.2131 139.529 20.2496C139.529 23.4166 137.855 25.0001 134.509 25.0001H127.22ZM134.385 22.417C135.703 22.417 136.362 21.7432 136.362 20.3956C136.362 18.726 135.377 17.8912 133.408 17.8912H132.51V15.9708C134.98 15.559 136.216 14.5258 136.216 12.8711C136.216 11.9727 135.662 11.5235 134.554 11.5235H130.196V22.417H134.385ZM142.067 25.0001V8.94048H145.043V15.5665H152.96V8.94048H155.936V25.0001H152.96V18.1495H145.043V25.0001H142.067ZM164.09 24.3262V21.6309C165.699 22.2299 167.519 22.5294 169.548 22.5294C172.011 22.5294 173.243 21.7058 173.243 20.0586C173.243 18.8607 172.486 18.2618 170.974 18.2618H168.458C165.172 18.2618 163.528 16.7644 163.528 13.7696C163.528 10.4753 165.868 8.82818 170.547 8.82818C172.344 8.82818 174.047 9.09022 175.657 9.61431V12.3096C174.047 11.7107 172.344 11.4112 170.547 11.4112C167.852 11.4112 166.504 12.1973 166.504 13.7696C166.504 14.9675 167.156 15.5665 168.458 15.5665H170.974C174.47 15.5665 176.219 17.0639 176.219 20.0586C176.219 23.4278 173.995 25.1124 169.548 25.1124C167.519 25.1124 165.699 24.8503 164.09 24.3262ZM181.722 8.94048V25.0001H178.745V8.94048H181.722ZM185.102 25.0001V8.94048H188.078L196.557 20.6426V8.94048H199.421V25.0001H196.445L187.966 13.0508V25.0001H185.102ZM215.604 24.2588C214.309 24.8279 212.688 25.1124 210.741 25.1124C205.073 25.1124 202.24 22.3235 202.24 16.7457C202.24 11.4673 205.122 8.82818 210.887 8.82818C212.646 8.82818 214.219 9.09022 215.604 9.61431V12.3096C214.219 11.7107 212.721 11.4112 211.112 11.4112C207.256 11.4112 205.328 13.1893 205.328 16.7457C205.328 20.6015 207.147 22.5294 210.786 22.5294C211.325 22.5294 211.939 22.4395 212.628 22.2598V17.5879H215.604V24.2588ZM218.411 25.0001V8.94048H221.388V15.5665H229.305V8.94048H232.281V25.0001H229.305V18.1495H221.388V25.0001H218.411Z" fill="#fff"/>
</svg>
