<svg viewBox="0 0 67 72" fill="none" xmlns="http://www.w3.org/2000/svg">
<mask id="mask0_7_220" style="mask-type:luminance" maskUnits="userSpaceOnUse" x="5" y="4" width="53" height="64">
<path d="M57.3395 33.5321L40.112 50.7658L57.3395 67.9995H37.6535L20.4198 50.7658L37.6535 33.5321H57.3395ZM37.6535 4L5.65686 35.9967L15.5029 45.8427L57.3395 4H37.6535V4Z" fill="white"/>
</mask>
<g mask="url(#mask0_7_220)">
<path d="M20.426 50.7658L30.2659 60.6119L57.3395 33.5321H37.6535L20.426 50.7658Z" fill="#39CEFD"/>
</g>
<mask id="mask1_7_220" style="mask-type:luminance" maskUnits="userSpaceOnUse" x="5" y="4" width="53" height="64">
<path d="M57.3395 33.5321L40.112 50.7658L57.3395 67.9995H37.6535L20.4198 50.7658L37.6535 33.5321H57.3395ZM37.6535 4L5.65686 35.9967L15.5029 45.8427L57.3395 4H37.6535V4Z" fill="white"/>
</mask>
<g mask="url(#mask1_7_220)">
<path d="M37.6535 4H57.3395L15.5029 45.8427L5.65686 35.9967L37.6535 4Z" fill="#39CEFD"/>
</g>
<mask id="mask2_7_220" style="mask-type:luminance" maskUnits="userSpaceOnUse" x="5" y="4" width="53" height="64">
<path d="M57.3395 33.5321L40.112 50.7658L57.3395 67.9995H37.6535L20.4198 50.7658L37.6535 33.5321H57.3395ZM37.6535 4L5.65686 35.9967L15.5029 45.8427L57.3395 4H37.6535V4Z" fill="white"/>
</mask>
<g mask="url(#mask2_7_220)">
<path d="M30.2659 60.6119L37.6535 67.9933H57.3395L40.112 50.7658L30.2659 60.6119Z" fill="#03569B"/>
</g>
<mask id="mask3_7_220" style="mask-type:luminance" maskUnits="userSpaceOnUse" x="5" y="4" width="53" height="64">
<path d="M57.3395 33.5321L40.112 50.7658L57.3395 67.9995H37.6535L20.4198 50.7658L37.6535 33.5321H57.3395ZM37.6535 4L5.65686 35.9967L15.5029 45.8427L57.3395 4H37.6535V4Z" fill="white"/>
</mask>
<g mask="url(#mask3_7_220)">
<path d="M44.8686 55.5533L40.112 50.7658L30.2659 60.6119L44.8686 55.5533Z" fill="url(#paint0_linear_7_220)"/>
</g>
<mask id="mask4_7_220" style="mask-type:luminance" maskUnits="userSpaceOnUse" x="5" y="4" width="53" height="64">
<path d="M57.3395 33.5321L40.112 50.7658L57.3395 67.9995H37.6535L20.4198 50.7658L37.6535 33.5321H57.3395ZM37.6535 4L5.65686 35.9967L15.5029 45.8427L57.3395 4H37.6535V4Z" fill="white"/>
</mask>
<g mask="url(#mask4_7_220)">
<path d="M20.4249 50.7624L30.2712 40.916L40.1181 50.7624L30.2712 60.6088L20.4249 50.7624Z" fill="#16B9FD"/>
</g>
<path d="M62.1666 31.5322L58.7535 34.9463L42.9391 50.7656L58.7535 66.5859L62.1666 69.999H36.8248L36.2389 69.4141L19.0055 52.1797L17.5914 50.7656L36.8248 31.5322H62.1666ZM62.1676 2L58.7535 5.41406L16.9176 47.2568L15.5026 48.6709L2.82874 35.9971L4.2428 34.582L36.8248 2H62.1676Z" fill="url(#paint1_radial_7_220)" stroke="white" stroke-width="4"/>
<defs>
<linearGradient id="paint0_linear_7_220" x1="33.1393" y1="62.512" x2="40.4724" y2="55.1789" gradientUnits="userSpaceOnUse">
<stop stop-color="#1A237E" stop-opacity="0.4"/>
<stop offset="1" stop-color="#1A237E" stop-opacity="0"/>
</linearGradient>
<radialGradient id="paint1_radial_7_220" cx="0" cy="0" r="1" gradientUnits="userSpaceOnUse" gradientTransform="translate(7.1088 8.36202) scale(78.2956)">
<stop stop-color="white" stop-opacity="0.1"/>
<stop offset="1" stop-color="white" stop-opacity="0"/>
</radialGradient>
</defs>
</svg>
