<svg width="54" height="56" viewBox="0 0 54 56" fill="none" xmlns="http://www.w3.org/2000/svg">
<path d="M2.5 29L3 8L12.5 2.5L15.5 4.5L22 8V13V22.5L23 29.5L31.5 24V15.5L32.5 13L41.5 8L50.5 13L51 24.5L41.5 30.5V41L22 52L3 41L2.5 33V29Z" fill="white"/>
<mask id="path-2-outside-1_4_213" maskUnits="userSpaceOnUse" x="0" y="0" width="54" height="56" fill="black">
<rect fill="white" width="54" height="56"/>
<path fill-rule="evenodd" clip-rule="evenodd" d="M51.626 13.5639C51.6444 13.632 51.6538 13.7023 51.654 13.7729V24.7449C51.654 24.8857 51.6168 25.024 51.5462 25.1459C51.4757 25.2677 51.3742 25.3688 51.252 25.4389L42.043 30.7409V41.2499C42.043 41.5359 41.891 41.7999 41.643 41.9439L22.42 53.0099C22.376 53.0349 22.328 53.0509 22.28 53.0679C22.262 53.0739 22.245 53.0849 22.226 53.0899C22.0916 53.1253 21.9504 53.1253 21.816 53.0899C21.794 53.0839 21.774 53.0719 21.753 53.0639C21.709 53.0479 21.663 53.0339 21.621 53.0099L2.402 41.9439C2.27991 41.8737 2.17846 41.7726 2.10788 41.6508C2.03731 41.529 2.0001 41.3907 2 41.2499V8.33387C2 8.26187 2.01 8.19187 2.028 8.12387C2.034 8.10087 2.048 8.07987 2.056 8.05687C2.071 8.01487 2.085 7.97187 2.107 7.93287C2.122 7.90687 2.144 7.88587 2.162 7.86187C2.185 7.82987 2.206 7.79687 2.233 7.76887C2.256 7.74587 2.286 7.72887 2.312 7.70887C2.341 7.68487 2.367 7.65887 2.4 7.63987L12.011 2.10687C12.1327 2.03685 12.2706 2 12.411 2C12.5514 2 12.6893 2.03685 12.811 2.10687L22.421 7.63987H22.423C22.455 7.65987 22.482 7.68487 22.511 7.70787C22.537 7.72787 22.566 7.74587 22.589 7.76787C22.617 7.79687 22.637 7.82987 22.661 7.86187C22.678 7.88587 22.701 7.90687 22.715 7.93287C22.738 7.97287 22.751 8.01487 22.767 8.05687C22.775 8.07987 22.789 8.10087 22.795 8.12487C22.8134 8.19302 22.8228 8.26328 22.823 8.33387V28.8929L30.831 24.2819V13.7719C30.831 13.7019 30.841 13.6309 30.859 13.5639C30.866 13.5399 30.879 13.5189 30.887 13.4959C30.903 13.4539 30.917 13.4109 30.939 13.3719C30.954 13.3459 30.976 13.3249 30.993 13.3009C31.017 13.2689 31.037 13.2359 31.065 13.2079C31.088 13.1849 31.117 13.1679 31.143 13.1479C31.173 13.1239 31.199 13.0979 31.231 13.0789L40.843 7.54587C40.9646 7.47575 41.1026 7.43885 41.243 7.43885C41.3834 7.43885 41.5214 7.47575 41.643 7.54587L51.253 13.0789C51.287 13.0989 51.313 13.1239 51.343 13.1469C51.368 13.1669 51.397 13.1849 51.42 13.2069C51.448 13.2359 51.468 13.2689 51.492 13.3009C51.51 13.3249 51.532 13.3459 51.546 13.3719C51.569 13.4109 51.582 13.4539 51.598 13.4959C51.607 13.5189 51.62 13.5399 51.626 13.5639ZM50.052 24.2819V15.1579L46.689 17.0939L42.043 19.7689V28.8929L50.053 24.2819H50.052ZM40.442 40.7869V31.6569L35.872 34.2669L22.822 41.7149V50.9309L40.442 40.7869ZM3.602 9.71887V40.7869L21.22 50.9299V41.7159L12.016 36.5069L12.013 36.5049L12.009 36.5029C11.978 36.4849 11.952 36.4589 11.923 36.4369C11.898 36.4169 11.869 36.4009 11.847 36.3789L11.845 36.3759C11.819 36.3509 11.801 36.3199 11.779 36.2919C11.759 36.2649 11.735 36.2419 11.719 36.2139L11.718 36.2109C11.7 36.1809 11.689 36.1449 11.676 36.1109C11.663 36.0809 11.646 36.0529 11.638 36.0209C11.628 35.9829 11.626 35.9419 11.622 35.9029C11.618 35.8729 11.61 35.8429 11.61 35.8129V35.8109V14.3299L6.965 11.6539L3.602 9.71887ZM12.412 3.72487L4.405 8.33387L12.41 12.9429L20.416 8.33287L12.41 3.72487H12.412ZM16.576 32.4889L21.221 29.8149V9.71887L17.858 11.6549L13.212 14.3299V34.4259L16.576 32.4889ZM41.243 9.16387L33.237 13.7729L41.243 18.3819L49.248 13.7719L41.243 9.16387ZM40.442 19.7689L35.796 17.0939L32.433 15.1579V24.2819L37.078 26.9559L40.442 28.8929V19.7689ZM22.02 40.3299L33.763 33.6259L39.633 30.2759L31.633 25.6699L22.422 30.9729L14.027 35.8059L22.02 40.3299Z"/>
</mask>
<path fill-rule="evenodd" clip-rule="evenodd" d="M51.626 13.5639C51.6444 13.632 51.6538 13.7023 51.654 13.7729V24.7449C51.654 24.8857 51.6168 25.024 51.5462 25.1459C51.4757 25.2677 51.3742 25.3688 51.252 25.4389L42.043 30.7409V41.2499C42.043 41.5359 41.891 41.7999 41.643 41.9439L22.42 53.0099C22.376 53.0349 22.328 53.0509 22.28 53.0679C22.262 53.0739 22.245 53.0849 22.226 53.0899C22.0916 53.1253 21.9504 53.1253 21.816 53.0899C21.794 53.0839 21.774 53.0719 21.753 53.0639C21.709 53.0479 21.663 53.0339 21.621 53.0099L2.402 41.9439C2.27991 41.8737 2.17846 41.7726 2.10788 41.6508C2.03731 41.529 2.0001 41.3907 2 41.2499V8.33387C2 8.26187 2.01 8.19187 2.028 8.12387C2.034 8.10087 2.048 8.07987 2.056 8.05687C2.071 8.01487 2.085 7.97187 2.107 7.93287C2.122 7.90687 2.144 7.88587 2.162 7.86187C2.185 7.82987 2.206 7.79687 2.233 7.76887C2.256 7.74587 2.286 7.72887 2.312 7.70887C2.341 7.68487 2.367 7.65887 2.4 7.63987L12.011 2.10687C12.1327 2.03685 12.2706 2 12.411 2C12.5514 2 12.6893 2.03685 12.811 2.10687L22.421 7.63987H22.423C22.455 7.65987 22.482 7.68487 22.511 7.70787C22.537 7.72787 22.566 7.74587 22.589 7.76787C22.617 7.79687 22.637 7.82987 22.661 7.86187C22.678 7.88587 22.701 7.90687 22.715 7.93287C22.738 7.97287 22.751 8.01487 22.767 8.05687C22.775 8.07987 22.789 8.10087 22.795 8.12487C22.8134 8.19302 22.8228 8.26328 22.823 8.33387V28.8929L30.831 24.2819V13.7719C30.831 13.7019 30.841 13.6309 30.859 13.5639C30.866 13.5399 30.879 13.5189 30.887 13.4959C30.903 13.4539 30.917 13.4109 30.939 13.3719C30.954 13.3459 30.976 13.3249 30.993 13.3009C31.017 13.2689 31.037 13.2359 31.065 13.2079C31.088 13.1849 31.117 13.1679 31.143 13.1479C31.173 13.1239 31.199 13.0979 31.231 13.0789L40.843 7.54587C40.9646 7.47575 41.1026 7.43885 41.243 7.43885C41.3834 7.43885 41.5214 7.47575 41.643 7.54587L51.253 13.0789C51.287 13.0989 51.313 13.1239 51.343 13.1469C51.368 13.1669 51.397 13.1849 51.42 13.2069C51.448 13.2359 51.468 13.2689 51.492 13.3009C51.51 13.3249 51.532 13.3459 51.546 13.3719C51.569 13.4109 51.582 13.4539 51.598 13.4959C51.607 13.5189 51.62 13.5399 51.626 13.5639ZM50.052 24.2819V15.1579L46.689 17.0939L42.043 19.7689V28.8929L50.053 24.2819H50.052ZM40.442 40.7869V31.6569L35.872 34.2669L22.822 41.7149V50.9309L40.442 40.7869ZM3.602 9.71887V40.7869L21.22 50.9299V41.7159L12.016 36.5069L12.013 36.5049L12.009 36.5029C11.978 36.4849 11.952 36.4589 11.923 36.4369C11.898 36.4169 11.869 36.4009 11.847 36.3789L11.845 36.3759C11.819 36.3509 11.801 36.3199 11.779 36.2919C11.759 36.2649 11.735 36.2419 11.719 36.2139L11.718 36.2109C11.7 36.1809 11.689 36.1449 11.676 36.1109C11.663 36.0809 11.646 36.0529 11.638 36.0209C11.628 35.9829 11.626 35.9419 11.622 35.9029C11.618 35.8729 11.61 35.8429 11.61 35.8129V35.8109V14.3299L6.965 11.6539L3.602 9.71887ZM12.412 3.72487L4.405 8.33387L12.41 12.9429L20.416 8.33287L12.41 3.72487H12.412ZM16.576 32.4889L21.221 29.8149V9.71887L17.858 11.6549L13.212 14.3299V34.4259L16.576 32.4889ZM41.243 9.16387L33.237 13.7729L41.243 18.3819L49.248 13.7719L41.243 9.16387ZM40.442 19.7689L35.796 17.0939L32.433 15.1579V24.2819L37.078 26.9559L40.442 28.8929V19.7689ZM22.02 40.3299L33.763 33.6259L39.633 30.2759L31.633 25.6699L22.422 30.9729L14.027 35.8059L22.02 40.3299Z" fill="#FF2D20"/>
<path fill-rule="evenodd" clip-rule="evenodd" d="M51.626 13.5639C51.6444 13.632 51.6538 13.7023 51.654 13.7729V24.7449C51.654 24.8857 51.6168 25.024 51.5462 25.1459C51.4757 25.2677 51.3742 25.3688 51.252 25.4389L42.043 30.7409V41.2499C42.043 41.5359 41.891 41.7999 41.643 41.9439L22.42 53.0099C22.376 53.0349 22.328 53.0509 22.28 53.0679C22.262 53.0739 22.245 53.0849 22.226 53.0899C22.0916 53.1253 21.9504 53.1253 21.816 53.0899C21.794 53.0839 21.774 53.0719 21.753 53.0639C21.709 53.0479 21.663 53.0339 21.621 53.0099L2.402 41.9439C2.27991 41.8737 2.17846 41.7726 2.10788 41.6508C2.03731 41.529 2.0001 41.3907 2 41.2499V8.33387C2 8.26187 2.01 8.19187 2.028 8.12387C2.034 8.10087 2.048 8.07987 2.056 8.05687C2.071 8.01487 2.085 7.97187 2.107 7.93287C2.122 7.90687 2.144 7.88587 2.162 7.86187C2.185 7.82987 2.206 7.79687 2.233 7.76887C2.256 7.74587 2.286 7.72887 2.312 7.70887C2.341 7.68487 2.367 7.65887 2.4 7.63987L12.011 2.10687C12.1327 2.03685 12.2706 2 12.411 2C12.5514 2 12.6893 2.03685 12.811 2.10687L22.421 7.63987H22.423C22.455 7.65987 22.482 7.68487 22.511 7.70787C22.537 7.72787 22.566 7.74587 22.589 7.76787C22.617 7.79687 22.637 7.82987 22.661 7.86187C22.678 7.88587 22.701 7.90687 22.715 7.93287C22.738 7.97287 22.751 8.01487 22.767 8.05687C22.775 8.07987 22.789 8.10087 22.795 8.12487C22.8134 8.19302 22.8228 8.26328 22.823 8.33387V28.8929L30.831 24.2819V13.7719C30.831 13.7019 30.841 13.6309 30.859 13.5639C30.866 13.5399 30.879 13.5189 30.887 13.4959C30.903 13.4539 30.917 13.4109 30.939 13.3719C30.954 13.3459 30.976 13.3249 30.993 13.3009C31.017 13.2689 31.037 13.2359 31.065 13.2079C31.088 13.1849 31.117 13.1679 31.143 13.1479C31.173 13.1239 31.199 13.0979 31.231 13.0789L40.843 7.54587C40.9646 7.47575 41.1026 7.43885 41.243 7.43885C41.3834 7.43885 41.5214 7.47575 41.643 7.54587L51.253 13.0789C51.287 13.0989 51.313 13.1239 51.343 13.1469C51.368 13.1669 51.397 13.1849 51.42 13.2069C51.448 13.2359 51.468 13.2689 51.492 13.3009C51.51 13.3249 51.532 13.3459 51.546 13.3719C51.569 13.4109 51.582 13.4539 51.598 13.4959C51.607 13.5189 51.62 13.5399 51.626 13.5639ZM50.052 24.2819V15.1579L46.689 17.0939L42.043 19.7689V28.8929L50.053 24.2819H50.052ZM40.442 40.7869V31.6569L35.872 34.2669L22.822 41.7149V50.9309L40.442 40.7869ZM3.602 9.71887V40.7869L21.22 50.9299V41.7159L12.016 36.5069L12.013 36.5049L12.009 36.5029C11.978 36.4849 11.952 36.4589 11.923 36.4369C11.898 36.4169 11.869 36.4009 11.847 36.3789L11.845 36.3759C11.819 36.3509 11.801 36.3199 11.779 36.2919C11.759 36.2649 11.735 36.2419 11.719 36.2139L11.718 36.2109C11.7 36.1809 11.689 36.1449 11.676 36.1109C11.663 36.0809 11.646 36.0529 11.638 36.0209C11.628 35.9829 11.626 35.9419 11.622 35.9029C11.618 35.8729 11.61 35.8429 11.61 35.8129V35.8109V14.3299L6.965 11.6539L3.602 9.71887ZM12.412 3.72487L4.405 8.33387L12.41 12.9429L20.416 8.33287L12.41 3.72487H12.412ZM16.576 32.4889L21.221 29.8149V9.71887L17.858 11.6549L13.212 14.3299V34.4259L16.576 32.4889ZM41.243 9.16387L33.237 13.7729L41.243 18.3819L49.248 13.7719L41.243 9.16387ZM40.442 19.7689L35.796 17.0939L32.433 15.1579V24.2819L37.078 26.9559L40.442 28.8929V19.7689ZM22.02 40.3299L33.763 33.6259L39.633 30.2759L31.633 25.6699L22.422 30.9729L14.027 35.8059L22.02 40.3299Z" stroke="white" stroke-width="4" stroke-linejoin="round" mask="url(#path-2-outside-1_4_213)"/>
</svg>
