<svg width="45" height="45" viewBox="0 0 45 45" fill="none" xmlns="http://www.w3.org/2000/svg">
<mask id="mask0_3_29" style="mask-type:luminance" maskUnits="userSpaceOnUse" x="0" y="0" width="45" height="45">
<path d="M34.6131 0.476369L10.6155 0.140109C5.09319 0.0627287 0.553749 4.47671 0.476369 9.99902L0.140109 33.9967C0.0627292 39.519 4.47671 44.0584 9.99902 44.1358L33.9967 44.472C39.519 44.5494 44.0584 40.1354 44.1358 34.6131L44.4721 10.6155C44.5494 5.09319 40.1354 0.553749 34.6131 0.476369Z" fill="white"/>
</mask>
<g mask="url(#mask0_3_29)">
<path d="M34.6131 0.476369L10.6155 0.140108C5.09319 0.0627282 0.553745 4.47671 0.476366 9.99902L0.140105 33.9967C0.0627254 39.519 4.47671 44.0584 9.99901 44.1358L33.9967 44.472C39.519 44.5494 44.0584 40.1354 44.1358 34.6131L44.472 10.6155C44.5494 5.09319 40.1354 0.553748 34.6131 0.476369Z" fill="#5B5EAC"/>
<path d="M60.3719 -8.91813C60.3719 -8.91813 43.682 -1.25482 46.351 18.3186C49.3456 40.2658 30.0688 49.3971 17.0643 43.7997C4.06011 38.1835 5.2568 18.1001 -19.6033 17.1312C-45.0017 16.1549 -49.9941 -9.22362 -49.9941 -9.22362" stroke="white" stroke-opacity="0.15" stroke-width="2" stroke-miterlimit="10"/>
<path d="M41.2914 -15.0709C41.2914 -15.0709 33.8803 1.52218 36.2135 18.1577C38.5647 34.7935 26.9283 36.5859 22.3444 34.5662C12.8192 30.409 11.273 8.83933 -4.17426 7.23148C-15.7865 6.01581 -31.5493 14.1245 -39.5742 -4.88467" stroke="white" stroke-opacity="0.15" stroke-width="2" stroke-miterlimit="10"/>
<path d="M33.4536 -7.73469C33.4536 -7.73469 35.7985 9.35228 24.4116 6.14668C11.3623 2.46651 11.6745 -5.72712 -5.01324 1.78579C-10.9551 4.46654 -34.7228 4.94202 -29.7192 -10.1805" stroke="white" stroke-opacity="0.15" stroke-width="2" stroke-miterlimit="10"/>
<path d="M24.6517 28.7134C27.3966 28.7519 29.67 25.349 29.7293 21.113C29.7887 16.877 27.6116 13.4118 24.8666 13.3733C22.1217 13.3349 19.8483 16.7377 19.789 20.9737C19.7296 25.2098 21.9067 28.6749 24.6517 28.7134Z" stroke="white" stroke-opacity="0.15" stroke-width="2" stroke-miterlimit="10"/>
<path d="M13.1606 23.7624C14.0651 23.7624 14.7403 23.5937 15.1676 23.2612C15.5903 22.932 15.8822 22.3618 16.0353 21.5664C16.1779 20.8229 16.1236 20.3038 15.8738 20.0237C15.6183 19.7375 15.0661 19.5924 14.2324 19.5924H12.7869L11.9855 23.7624H13.1606ZM8.43264 28.899C8.36554 28.899 8.30181 28.8687 8.25916 28.8162C8.21642 28.7639 8.1991 28.6949 8.21192 28.6282L10.3357 17.5777C10.3563 17.4709 10.4488 17.3937 10.5565 17.3937H15.1338C16.5723 17.3937 17.6431 17.7887 18.3161 18.5679C18.9927 19.3512 19.2017 20.4461 18.9371 21.8221C18.8294 22.3827 18.6443 22.9033 18.3867 23.3694C18.1289 23.8361 17.7882 24.2679 17.3738 24.653C16.8778 25.1225 16.3164 25.4629 15.7067 25.6632C15.1067 25.8609 14.3362 25.9611 13.4165 25.9611H11.5631L11.0338 28.715C11.0132 28.8219 10.9207 28.899 10.8131 28.899H8.43264Z" fill="white"/>
<path d="M12.9723 19.8198H14.2324C15.2386 19.8198 15.5881 20.0431 15.7069 20.1762C15.9039 20.3971 15.9411 20.8629 15.8145 21.5232C15.6722 22.2625 15.4084 22.7866 15.0304 23.0809C14.6434 23.3822 14.0143 23.5349 13.1606 23.5349H12.2584L12.9723 19.8198ZM15.1338 17.1662H10.5564C10.3411 17.1662 10.156 17.3206 10.1149 17.5343L7.99115 28.5848C7.96551 28.7182 8.00014 28.8561 8.08554 28.9609C8.171 29.0658 8.2983 29.1265 8.43265 29.1265H10.813C11.0284 29.1265 11.2135 28.9721 11.2546 28.7584L11.7485 26.1885H13.4165C14.3598 26.1885 15.1539 26.0845 15.7765 25.8794C16.4169 25.669 17.006 25.3123 17.5274 24.8192C17.9587 24.418 18.3139 23.9676 18.583 23.4805C18.8522 22.9932 19.0457 22.4498 19.1579 21.8654C19.4364 20.417 19.2102 19.2571 18.4855 18.4183C17.7679 17.5875 16.6401 17.1662 15.1338 17.1662ZM11.7126 23.9898H13.1606C14.1203 23.9898 14.8351 23.807 15.3048 23.4413C15.7746 23.0756 16.0914 22.4652 16.2561 21.6098C16.4136 20.7886 16.3418 20.209 16.0408 19.8714C15.7394 19.5338 15.1367 19.3649 14.2324 19.3649H12.6015L11.7126 23.9898ZM15.1338 17.6211C16.5108 17.6211 17.5154 17.9866 18.1468 18.7175C18.7781 19.4485 18.9682 20.4688 18.7163 21.7787C18.6126 22.3183 18.4373 22.8116 18.1904 23.2585C17.9432 23.7058 17.6205 24.1148 17.2216 24.4856C16.7463 24.9354 16.2183 25.256 15.6372 25.4469C15.0562 25.6383 14.3162 25.7336 13.4165 25.7336H11.3776L10.813 28.6716H8.43265L10.5564 17.6211H15.1338Z" fill="#2D319A"/>
<path d="M24.3949 25.9611C24.3277 25.9611 24.2641 25.9308 24.2214 25.8783C24.1786 25.8259 24.1613 25.757 24.1741 25.6903L25.1136 20.8009C25.2029 20.3359 25.1809 20.0021 25.0516 19.8611C24.9724 19.7749 24.7346 19.6303 24.0314 19.6303H22.3294L21.1483 25.777C21.1277 25.8839 21.0351 25.9611 20.9275 25.9611H18.5659C18.4987 25.9611 18.4351 25.9308 18.3923 25.8783C18.3496 25.8259 18.3323 25.7569 18.3451 25.6903L20.4689 14.6398C20.4894 14.5329 20.582 14.4558 20.6897 14.4558H23.0513C23.1184 14.4558 23.1821 14.4861 23.2248 14.5385C23.2676 14.5909 23.2849 14.6599 23.2721 14.7266L22.7596 17.3937H24.5905C25.9853 17.3937 26.9312 17.6424 27.4821 18.154C28.0436 18.6759 28.2188 19.5105 28.0029 20.6347L27.0148 25.777C26.9942 25.8839 26.9017 25.9611 26.794 25.9611H24.3949Z" fill="white"/>
<path d="M23.0513 14.2283H20.6897C20.4743 14.2283 20.2892 14.3826 20.2481 14.5964L18.1243 25.6469C18.0987 25.7802 18.1333 25.9181 18.2188 26.023C18.3042 26.1279 18.4315 26.1885 18.5659 26.1885H20.9275C21.1428 26.1885 21.328 26.0341 21.3691 25.8204L22.5149 19.8577H24.0315C24.7334 19.8577 24.8807 20.0094 24.8867 20.0159C24.9292 20.0622 24.9852 20.2768 24.8928 20.7575L23.9533 25.6469C23.9277 25.7802 23.9623 25.9181 24.0478 26.023C24.1333 26.1279 24.2606 26.1885 24.3949 26.1885H26.794C27.0093 26.1885 27.1945 26.0341 27.2356 25.8204L28.2236 20.6781C28.4555 19.471 28.2571 18.5655 27.6343 17.9866C27.0399 17.4345 26.0443 17.1662 24.5905 17.1662H23.0323L23.4929 14.77C23.5184 14.6366 23.4839 14.4986 23.3984 14.3939C23.3129 14.289 23.1856 14.2283 23.0513 14.2283ZM23.0513 14.6832L22.4867 17.6211H24.5905C25.9143 17.6211 26.8274 17.8548 27.3299 18.3215C27.8324 18.7886 27.983 19.5453 27.7821 20.5913L26.794 25.7336H24.3949L25.3344 20.8443C25.4413 20.2881 25.402 19.9087 25.2164 19.7064C25.0307 19.5041 24.6356 19.4028 24.0315 19.4028H22.144L20.9275 25.7336H18.5659L20.6897 14.6832H23.0513Z" fill="#2D319A"/>
<path d="M31.7396 23.7624C32.6441 23.7624 33.3194 23.5937 33.7467 23.2612C34.1693 22.9321 34.4613 22.3619 34.6144 21.5664C34.757 20.8229 34.7027 20.3038 34.4528 20.0237C34.1974 19.7375 33.6451 19.5924 32.8115 19.5924H31.3659L30.5646 23.7624H31.7396ZM27.0118 28.899C26.9447 28.899 26.8809 28.8687 26.8383 28.8162C26.7955 28.7639 26.7782 28.6949 26.791 28.6282L28.9148 17.5777C28.9354 17.4709 29.0279 17.3937 29.1356 17.3937H33.7128C35.1515 17.3937 36.2221 17.7887 36.8952 18.5679C37.5718 19.3511 37.7807 20.446 37.5162 21.8221C37.4084 22.3827 37.2233 22.9033 36.9658 23.3694C36.708 23.8361 36.3672 24.2679 35.9528 24.653C35.4568 25.1225 34.8954 25.4629 34.2858 25.6632C33.6858 25.8609 32.9152 25.9611 31.9956 25.9611H30.142L29.613 28.715C29.5924 28.8219 29.4998 28.899 29.3921 28.899H27.0118Z" fill="white"/>
<path d="M31.5514 19.8198H32.8115C33.8177 19.8198 34.1672 20.0431 34.2859 20.1762C34.483 20.3971 34.5202 20.8629 34.3935 21.5232C34.2512 22.2625 33.9874 22.7866 33.6095 23.0809C33.2225 23.3822 32.5933 23.5349 31.7396 23.5349H30.8375L31.5514 19.8198ZM33.7129 17.1662H29.1356C28.9202 17.1662 28.7351 17.3206 28.694 17.5343L26.5703 28.5848C26.5446 28.7182 26.5793 28.8561 26.6646 28.9609C26.7501 29.0658 26.8774 29.1265 27.0118 29.1265H29.3921C29.6074 29.1265 29.7926 28.9721 29.8337 28.7584L30.3275 26.1885H31.9956C32.9388 26.1885 33.7329 26.0845 34.3556 25.8794C34.9959 25.669 35.5852 25.3122 36.1066 24.819C36.5378 24.4179 36.8929 23.9676 37.1621 23.4805C37.4313 22.9932 37.6247 22.4498 37.7369 21.8654C38.0155 20.4169 37.7892 19.257 37.0645 18.4182C36.3469 17.5875 35.2192 17.1662 33.7129 17.1662ZM30.2918 23.9898H31.7396C32.6993 23.9898 33.4142 23.807 33.8839 23.4413C34.3537 23.0756 34.6705 22.4652 34.8351 21.6098C34.9927 20.7886 34.9209 20.209 34.6199 19.8714C34.3185 19.5338 33.7158 19.3649 32.8115 19.3649H31.1805L30.2918 23.9898ZM33.7129 17.6211C35.0898 17.6211 36.0944 17.9866 36.7258 18.7175C37.3572 19.4485 37.5473 20.4688 37.2954 21.7787C37.1917 22.3183 37.0163 22.8116 36.7694 23.2585C36.5223 23.7058 36.1995 24.1148 35.8007 24.4856C35.3253 24.9354 34.7973 25.256 34.2163 25.4469C33.6353 25.6383 32.8952 25.7336 31.9956 25.7336H29.9566L29.3921 28.6716H27.0118L29.1356 17.6211H33.7129Z" fill="#2D319A"/>
</g>
</svg>
